<?xml version="1.0" encoding="utf-8"?>
<!-- Generator: Adobe Illustrator 24.2.1, SVG Export Plug-In . SVG Version: 6.00 Build 0)  -->
<svg version="1.1" xmlns="http://www.w3.org/2000/svg" xmlns:xlink="http://www.w3.org/1999/xlink" x="0px" y="0px"
	 viewBox="0 0 1280 1024" style="enable-background:new 0 0 1280 1024;" xml:space="preserve">
<style type="text/css">
	.st0{display:none;}
	.st1{display:inline;fill:#53B95F;}
	.st2{display:inline;}
	.st3{fill:#53B95F;}
	.st4{fill:#FFFFFF;}
	.st5{font-family:'Gotham-Thin';}
	.st6{font-size:40px;}
	.st7{display:inline;fill:#FFFFFF;}
	.st8{display:inline;fill:none;stroke:#FFFFFF;stroke-width:4;stroke-miterlimit:10;}
	.st9{fill:none;stroke:#FFFFFF;stroke-width:5;stroke-miterlimit:10;}
	.st10{font-family:'Gotham-Bold';}
</style>
<g id="background">
</g>
<g id="Layer_2">
	<g class="st0">
		<path class="st1" d="M582.42,349.78c2.56,0,13.74-0.83,27.34,9.42c0.61,0.46,0.73,1.33,0.29,1.95l-6.53,9.15
			c-0.47,0.66-1.38,0.79-2.02,0.3c-1.2-0.93-3.25-2.4-5.65-3.63c-3.86-1.97-8.99-3.64-13.42-3.64c-4.43,0-11.54,1.45-11.54,8.42
			c0,5.61,4.96,7.72,20.26,11.49c9.96,2.59,21.58,7.37,21.58,22.63c0,14.04-11.67,22.89-27.76,22.89c-9.7,0-23-3.68-31.44-12.19
			c-0.51-0.52-0.53-1.35-0.05-1.9l7.34-8.65c0.52-0.61,1.45-0.67,2.04-0.12c2.79,2.61,10.95,9.22,22.07,9.22
			c13.25,0,12.72-7.98,12.72-9.17c0-2.54-1.84-6.1-8.38-7.94s-22.94-4.91-29.08-12.06c-3.77-4.47-4.3-9.43-4.3-13.16
			C555.88,364.38,561.32,349.78,582.42,349.78z"/>
		<path class="st1" d="M650.75,368.05c-11.81,0-18.19,8.69-18.19,8.69v-6.02c0-0.78-0.63-1.42-1.42-1.42h-12.12
			c-0.78,0-1.42,0.63-1.42,1.42v72.77c0,0.78,0.63,1.42,1.42,1.42h12.17c0.78,0,1.42-0.63,1.42-1.42v-22.67
			c0,0,5.92,7.94,18.78,7.94c10.2,0,26.64-8.19,26.64-30.11C678.02,376.74,662.56,368.05,650.75,368.05z M647.6,415.83
			c-8.25,0-15.25-7.17-15.25-17.42c0-6.25,3.92-17.17,15.08-17.17s15.42,9,15.42,17.17C662.85,406.58,658.35,415.83,647.6,415.83z"
			/>
		<circle class="st1" cx="795.9" cy="352.86" r="9.21"/>
		<path class="st1" d="M713.02,368.05c-19.08,0-30.92,15.69-30.92,30.48c0,16.21,12.58,30.38,31.04,30.38
			c18.46,0,31.04-14.58,31.04-30.38C744.19,382.74,732.1,368.05,713.02,368.05z M713.15,415.83c-7.79,0-16.29-6.52-16.29-17.34
			s7.67-17.24,16.29-17.24c6.63,0,16.04,5.48,16.04,17.24S720.94,415.83,713.15,415.83z"/>
		<path class="st1" d="M782.35,380.91v-10.33c0-0.78-0.63-1.42-1.42-1.42H767.1v-14c0-0.78-0.63-1.42-1.42-1.42h-11.92
			c-0.78,0-1.42,0.63-1.42,1.42v14h-5.83c-0.78,0-1.42,0.63-1.42,1.42v10.33c0,0.78,0.63,1.42,1.42,1.42h5.83c0,0,0,22.67,0,29.25
			s3,17,16.08,17c6.02,0,11.16-2.11,13.1-3.01c0.5-0.23,0.82-0.73,0.82-1.29v-10.12c0-0.91-1.02-1.46-1.77-0.94
			c-1.37,0.94-3.6,1.94-6.9,1.94c-6.25,0-6.58-4.25-6.58-7.25s0-25.58,0-25.58h13.83C781.72,382.33,782.35,381.69,782.35,380.91z"/>
		<path class="st1" d="M801.85,427.58h-11.94c-0.78,0-1.42-0.63-1.42-1.42v-55.58c0-0.78,0.63-1.42,1.42-1.42h11.94
			c0.78,0,1.42,0.63,1.42,1.42v55.58C803.27,426.94,802.64,427.58,801.85,427.58z"/>
		<path class="st1" d="M816.44,382.33h-5.75c-0.78,0-1.42-0.63-1.42-1.42v-10.33c0-0.78,0.63-1.42,1.42-1.42h5.75c0,0,0-1.25,0-3.75
			s0.42-18.25,18.08-18.25c8.75,0,11.6,1.96,11.6,1.96s0,9.56,0,10.63s-0.38,1.94-1.5,1.5s-4.44-1.31-7.13-1.31
			s-6.38,1.56-6.38,6.31c0,1.69,0,2.92,0,2.92h21.65c0.59,0,1.11,0.36,1.32,0.91l15.15,39.18l13.61-39.05
			c0.2-0.57,0.74-0.95,1.34-0.95h13.31c0.63,0,1.07,0.63,0.84,1.21c-3.12,8.08-20.81,53.85-23.09,59.66
			c-2.5,6.38-6.75,15.06-18.94,15.06c-7.07,0-11.63-2.37-13.53-3.61c-0.59-0.39-0.81-1.15-0.51-1.79l4.34-9.31
			c0.18-0.39,0.66-0.54,1.03-0.31c1.24,0.76,4.07,2.24,7.36,2.24c4.84,0,7-5.72,7-5.72l-18.56-44.35h-12.22v43.94
			c0,0.78-0.63,1.42-1.42,1.42h-11.98c-0.78,0-1.42-0.64-1.42-1.42L816.44,382.33z"/>
		<g class="st2">
			<path class="st3" d="M905.62,373.21h4.42c1.23,0,2.18,0.35,2.82,0.98c0.54,0.54,0.83,1.3,0.83,2.21v0.03c0,1.56-0.84,2.54-2.07,3
				l2.36,3.46h-2.49l-2.07-3.1h-0.03h-1.65v3.1h-2.13V373.21z M909.91,377.91c1.04,0,1.63-0.55,1.63-1.37v-0.03
				c0-0.91-0.64-1.38-1.67-1.38h-2.12v2.78H909.91z"/>
		</g>
		<g>
			<path class="st1" d="M909.48,387.41c-5.04,0-9.14-4.1-9.14-9.14s4.1-9.14,9.14-9.14s9.14,4.1,9.14,9.14
				S914.52,387.41,909.48,387.41z M909.48,370.14c-4.49,0-8.14,3.65-8.14,8.14s3.65,8.14,8.14,8.14s8.14-3.65,8.14-8.14
				S913.96,370.14,909.48,370.14z"/>
		</g>
	</g>
	<text transform="matrix(1 0 0 1 252.9999 432.4893)" class="st4 st5 st6">where is my song?</text>
	<text transform="matrix(1 0 0 1 252.9999 251.4893)" class="st4 st5 st6">hello “username”,</text>
	<rect x="253" y="471.87" class="st4" width="676" height="35"/>
	<g id="seçenek-1" class="st0">
		<path class="st7" d="M961.6,486.65h-2.52v-5h2.52v-1.36c0-2.36,0.6-4.08,1.72-5.2c1.12-1.12,2.76-1.68,4.92-1.68
			c1.92,0,3.2,0.24,4.32,0.6v5.04c-0.88-0.32-1.72-0.52-2.76-0.52c-1.4,0-2.2,0.72-2.2,2.32v0.84h4.92v4.96h-4.84v16.24h-6.08
			V486.65z"/>
		<path class="st7" d="M975.96,473.69h6.4v5.4h-6.4V473.69z M976.12,481.45h6.08v21.44h-6.08V481.45z"/>
		<path class="st7" d="M987.92,481.45H994v3.04c1.4-1.8,3.2-3.44,6.28-3.44c4.6,0,7.28,3.04,7.28,7.96v13.88h-6.08v-11.96
			c0-2.88-1.36-4.36-3.68-4.36c-2.32,0-3.8,1.48-3.8,4.36v11.96h-6.08V481.45z"/>
		<path class="st7" d="M1011.88,492.21v-0.08c0-7.16,4.68-11.08,9.76-11.08c3.24,0,5.24,1.48,6.68,3.2v-10.56h6.08v29.2h-6.08v-3.08
			c-1.48,2-3.52,3.48-6.68,3.48C1016.64,503.29,1011.88,499.37,1011.88,492.21z M1028.4,492.21v-0.08c0-3.56-2.36-5.92-5.2-5.92
			c-2.84,0-5.24,2.32-5.24,5.92v0.08c0,3.56,2.4,5.92,5.24,5.92C1026.04,498.13,1028.4,495.77,1028.4,492.21z"/>
		<path class="st7" d="M1051.84,481.45h6.08v3.04c1.4-1.8,3.24-3.44,6.32-3.44c2.8,0,4.92,1.24,6.04,3.4c1.88-2.2,4.12-3.4,7.04-3.4
			c4.52,0,7.24,2.72,7.24,7.88v13.96h-6.08v-11.96c0-2.88-1.28-4.36-3.56-4.36c-2.28,0-3.68,1.48-3.68,4.36v11.96h-6.08v-11.96
			c0-2.88-1.28-4.36-3.56-4.36c-2.28,0-3.68,1.48-3.68,4.36v11.96h-6.08V481.45z"/>
		<path class="st7" d="M1088.8,492.29v-0.08c0-6.12,4.36-11.16,10.6-11.16c7.16,0,10.44,5.56,10.44,11.64c0,0.48-0.04,1.04-0.08,1.6
			h-14.92c0.6,2.76,2.52,4.2,5.24,4.2c2.04,0,3.52-0.64,5.2-2.2l3.48,3.08c-2,2.48-4.88,4-8.76,4
			C1093.56,503.37,1088.8,498.85,1088.8,492.29z M1103.92,490.49c-0.36-2.72-1.96-4.56-4.52-4.56c-2.52,0-4.16,1.8-4.64,4.56
			H1103.92z"/>
		<path class="st7" d="M1112.71,470.47l-0.23-0.97l10.6-2.5l0.23,0.97l2.27,22.13l-5,1.18L1112.71,470.47z"/>
		<circle class="st8" cx="1126.33" cy="502.25" r="7.75"/>
	</g>
	<g id="seçenek-2">
		<g>
			<path class="st4" d="M1131.91,517.48l-0.48,0.88l-9.55-5.23l0.48-0.88l13.12-17.96l4.51,2.47L1131.91,517.48z"/>
			<circle class="st9" cx="1147.47" cy="476.88" r="16.12"/>
		</g>
		<text transform="matrix(1 0 0 1 958.085 503.0779)" class="st4 st10 st6">find me</text>
	</g>
	<g>
		<circle class="st3" cx="1147.3" cy="477.12" r="14"/>
		<g>
			<path class="st4" d="M1150.28,485.03c-0.15-0.06-0.28-0.17-0.38-0.31c-3.77-5.21-10.54-6.01-10.6-6.02
				c-0.5-0.06-0.87-0.51-0.81-1.01c0.05-0.5,0.51-0.87,1.01-0.82c0.31,0.03,7.64,0.88,11.9,6.77c0.3,0.41,0.21,0.99-0.21,1.28
				C1150.91,485.13,1150.57,485.16,1150.28,485.03z"/>
		</g>
		<g>
			<path class="st4" d="M1153.22,482.18c-0.17-0.07-0.32-0.19-0.44-0.35c-4.81-6.38-12.14-6.98-12.21-6.99
				c-0.6-0.04-1.05-0.56-1.01-1.16c0.04-0.6,0.56-1.05,1.16-1.01c0.34,0.02,8.39,0.69,13.79,7.84c0.36,0.48,0.27,1.16-0.21,1.52
				C1153.98,482.29,1153.57,482.33,1153.22,482.18z"/>
		</g>
		<path class="st4" d="M1156.48,478.91c-0.19-0.08-0.37-0.21-0.51-0.38c-5.7-6.99-14.23-7.89-14.31-7.9
			c-0.74-0.07-1.27-0.73-1.2-1.46c0.07-0.74,0.73-1.27,1.46-1.2c0.39,0.04,9.73,1.03,16.13,8.87c0.47,0.57,0.38,1.42-0.19,1.88
			C1157.45,479.04,1156.92,479.1,1156.48,478.91z"/>
	</g>
</g>
</svg>
